HIERARCHY
ROOT root
{
	OFFSET 0.000000 0.000000 0.000000
	CHANNELS 6 Xposition Yposition Zposition Zrotation Yrotation Xrotation
	JOINT lhip
	{
		OFFSET 0.058581 -0.082280 -0.017664
		CHANNELS 3 Zrotation Yrotation Xrotation
		JOINT lknee
		{
			OFFSET 0.043451 -0.386469 0.008037
			CHANNELS 3 Zrotation Yrotation Xrotation
			JOINT lankle
			{
				OFFSET -0.014790 -0.426874 -0.037428
				CHANNELS 3 Zrotation Yrotation Xrotation
				JOINT ltoe
				{
					OFFSET 0.041054 -0.060286 0.122042
					CHANNELS 3 Zrotation Yrotation Xrotation
					End Site
					{
						OFFSET 0.000000 0.000000 0.000000
					}
				}
			}
		}
	}
	JOINT rhip
	{
		OFFSET -0.060310 -0.090513 -0.013543
		CHANNELS 3 Zrotation Yrotation Xrotation
		JOINT rknee
		{
			OFFSET -0.043257 -0.383688 -0.004843
			CHANNELS 3 Zrotation Yrotation Xrotation
			JOINT rankle
			{
				OFFSET 0.019056 -0.420046 -0.034562
				CHANNELS 3 Zrotation Yrotation Xrotation
				JOINT rtoe
				{
					OFFSET -0.034840 -0.062106 0.130323
					CHANNELS 3 Zrotation Yrotation Xrotation
					End Site
					{
						OFFSET 0.000000 0.000000 0.000000
					}
				}
			}
		}
	}
	JOINT lowerback
	{
		OFFSET 0.004439 0.124404 -0.038385
		CHANNELS 3 Zrotation Yrotation Xrotation
		JOINT upperback
		{
			OFFSET 0.004488 0.137956 0.026820
			CHANNELS 3 Zrotation Yrotation Xrotation
			JOINT chest
			{
				OFFSET -0.002265 0.056032 0.002855
				CHANNELS 3 Zrotation Yrotation Xrotation
				JOINT lowerneck
				{
					OFFSET -0.013390 0.211636 -0.033468
					CHANNELS 3 Zrotation Yrotation Xrotation
					JOINT upperneck
					{
						OFFSET 0.010113 0.088937 0.050410
						CHANNELS 3 Zrotation Yrotation Xrotation
						End Site
						{
							OFFSET 0.000000 0.000000 0.000000
						}
					}
				}
				JOINT lclavicle
				{
					OFFSET 0.071702 0.114000 -0.018898
					CHANNELS 3 Zrotation Yrotation Xrotation
					JOINT lshoulder
					{
						OFFSET 0.122921 0.045205 -0.019046
						CHANNELS 3 Zrotation Yrotation Xrotation
						JOINT lelbow
						{
							OFFSET 0.255332 -0.015649 -0.022946
							CHANNELS 3 Zrotation Yrotation Xrotation
							JOINT lwrist
							{
								OFFSET 0.265709 0.012698 -0.007375
								CHANNELS 3 Zrotation Yrotation Xrotation
								End Site
								{
									OFFSET 0.000000 0.000000 0.000000
								}
							}
						}
					}
				}
				JOINT rclavicle
				{
					OFFSET -0.082954 0.112472 -0.023707
					CHANNELS 3 Zrotation Yrotation Xrotation
					JOINT rshoulder
					{
						OFFSET -0.113228 0.046853 -0.008472
						CHANNELS 3 Zrotation Yrotation Xrotation
						JOINT relbow
						{
							OFFSET -0.260127 -0.014369 -0.031269
							CHANNELS 3 Zrotation Yrotation Xrotation
							JOINT rwrist
							{
								OFFSET -0.269108 0.006794 -0.006027
								CHANNELS 3 Zrotation Yrotation Xrotation
								End Site
								{
									OFFSET 0.000000 0.000000 0.000000
								}
							}
						}
					}
				}
			}
		}
	}
}
MOTION
Frames: 13
Frame Time: 0.033333
-0.155709 0.286396 0.926805 84.144410 0.259883 78.348258 6.053350 -1.033554 -19.003876 -7.553846 3.094804 48.776887 2.793046 10.284564 -21.836664 0.000000 -0.000000 0.000000 -2.771200 1.761198 -21.913877 0.822044 -3.841340 54.621084 -1.693880 -5.316140 -22.092141 0.000000 -0.000000 0.000000 -1.359668 0.568041 24.885112 2.438155 -4.235483 -0.513096 1.525020 -1.404411 0.887132 -3.130624 1.743369 19.377630 2.753584 1.960694 9.359011 -15.213073 -15.185164 7.034559 -62.464227 -19.601651 4.656043 11.313413 -20.359382 -9.002604 10.805644 -5.927255 -25.306828 12.494087 15.173861 5.708548 68.214760 14.047996 10.975137 -17.219168 20.889790 -2.443654 -3.231548 4.775419 -9.538252 
-0.158860 0.287943 0.935374 83.059754 -0.105970 80.459926 5.845493 -0.760686 -19.931169 -7.445112 3.434240 46.176611 2.695683 9.949538 -20.497142 0.000000 -0.000000 0.000000 -2.816239 2.089863 -22.881739 0.569389 -3.435700 51.422483 -1.806350 -5.252783 -21.079381 0.000000 -0.000000 0.000000 -1.331367 0.196683 25.220841 2.275858 -4.445840 -0.906760 1.510280 -1.499527 1.120063 -3.656745 2.603116 18.466809 2.600613 2.297214 9.134280 -14.834276 -14.916482 6.467609 -61.455012 -19.824856 4.268702 10.928100 -19.526042 -9.119437 10.052925 -5.988352 -24.734632 12.535845 14.728571 5.756489 68.493104 13.861798 11.286302 -17.106168 20.149137 -2.869678 -3.135966 4.558671 -9.632415 
-0.161144 0.289384 0.942985 81.759786 -0.395658 81.887291 5.826321 -0.476713 -20.071611 -7.377575 4.089049 43.642336 2.437514 9.767642 -19.360646 0.000000 -0.000000 0.000000 -3.017369 2.797242 -23.899805 0.428201 -3.378754 49.479551 -1.264383 -4.691289 -19.262282 0.000000 -0.000000 0.000000 -1.281608 -0.102895 26.019837 2.075920 -4.380263 -0.914584 1.453463 -1.495709 1.023097 -4.140331 3.330831 17.953977 2.529628 2.586599 8.757302 -14.934464 -15.118640 6.071547 -59.995324 -20.181804 3.947049 10.816780 -18.662733 -9.952329 9.107597 -6.414953 -24.163159 12.752352 14.578526 5.951434 68.427546 13.412793 11.525999 -16.921274 19.190883 -3.121357 -2.926293 4.376530 -9.540054 
-0.162662 0.290132 0.948775 80.797347 -0.524172 83.133284 6.005330 0.149881 -20.261760 -7.353931 4.740680 41.563371 2.193897 9.357791 -18.426259 0.000000 -0.000000 0.000000 -3.142945 2.777291 -24.551205 0.679345 -3.051472 47.611528 -0.819841 -4.086318 -18.111828 0.000000 -0.000000 0.000000 -1.234393 -0.215114 26.435860 1.984266 -4.482429 -0.595066 1.460642 -1.532900 0.848352 -4.517449 3.780033 17.654984 2.697131 2.812402 8.650892 -15.088682 -15.574849 5.671668 -58.820122 -20.754259 3.693673 11.010908 -17.575018 -10.717469 8.988835 -6.596167 -23.095667 13.022761 14.566139 6.186807 68.112193 12.849268 11.504982 -16.436732 18.014993 -2.866044 -2.546983 4.222299 -9.081981 
-0.162616 0.290412 0.952683 80.763211 -0.568445 84.149832 5.986910 0.757028 -20.594994 -7.396770 4.785661 40.165690 2.058492 8.892556 -17.809059 0.000000 -0.000000 0.000000 -3.325451 1.897649 -24.876784 0.864343 -2.995713 46.104279 -0.602454 -3.604006 -17.478920 0.000000 -0.000000 0.000000 -1.140939 -0.332765 26.517962 2.040546 -4.883342 -0.475300 1.551913 -1.722911 0.996761 -4.691938 3.979404 17.381056 2.979937 2.805376 8.889217 -15.026312 -15.992065 5.232251 -58.402221 -21.671102 3.593876 11.269335 -16.635378 -11.461899 9.445503 -6.562100 -22.780672 13.164740 14.302405 6.283791 67.899392 12.185199 11.270980 -15.933032 16.829021 -2.647959 -2.369395 4.136539 -8.768207 
-0.160963 0.290263 0.955592 81.277112 -0.441419 84.717993 6.005274 0.947553 -20.662604 -7.498370 4.506691 39.206416 1.991502 8.648049 -17.443193 0.000000 -0.000000 0.000000 -3.532844 1.398424 -24.736112 1.005893 -3.579692 45.011387 -0.356023 -3.576255 -17.079700 0.000000 -0.000000 0.000000 -0.956052 -0.559936 26.678704 2.211191 -5.196740 -0.566577 1.693873 -1.985128 1.215824 -4.675974 3.929417 17.192058 3.175608 2.758524 9.180225 -14.990922 -16.270294 4.977364 -58.539065 -22.739152 3.791665 11.576355 -16.284401 -11.995263 9.611503 -6.576319 -22.832148 13.235364 13.814932 6.330307 67.805345 11.432097 11.046006 -15.582848 15.727408 -2.543466 -2.201698 4.035268 -8.661446 
-0.158308 0.289595 0.957536 81.827113 -0.325729 85.193469 6.035229 0.816672 -20.764673 -7.441192 4.383463 38.609642 1.992817 8.368240 -17.104078 0.000000 -0.000000 0.000000 -3.518763 1.227754 -24.617524 0.981253 -3.932897 44.309820 -0.169639 -4.071633 -17.090645 0.000000 -0.000000 0.000000 -0.951459 -0.681433 26.556461 2.449248 -5.420879 -0.626669 1.845042 -2.197598 1.353511 -4.558353 3.802551 16.894261 3.356407 2.660444 9.487730 -15.015989 -16.305781 4.852706 -59.056787 -23.593701 4.373056 11.917203 -16.790410 -12.065629 9.759785 -6.642630 -22.913907 13.460645 13.254585 6.371658 67.691441 10.669180 10.960153 -15.373184 14.965585 -2.577535 -1.971225 3.892648 -8.438191 
-0.155242 0.288615 0.958840 82.329097 -0.320546 85.648550 5.982888 0.446182 -20.876866 -7.317664 4.436332 38.134122 2.012165 8.271312 -16.897598 0.000000 -0.000000 0.000000 -3.391212 1.284372 -24.592011 0.758101 -4.019712 43.944235 0.088464 -4.630877 -17.467700 0.000000 -0.000000 0.000000 -1.145045 -0.664171 26.193721 2.669826 -5.600383 -0.583976 1.969498 -2.336607 1.455661 -4.400236 3.708896 16.323186 3.514561 2.522936 9.630376 -15.080129 -16.215144 4.699156 -59.745493 -24.198601 5.216928 12.185518 -17.791467 -11.978041 9.959012 -6.767708 -23.151896 13.812818 12.707545 6.388667 67.610742 10.047241 11.019161 -15.377695 14.691956 -2.922269 -1.614346 3.650244 -8.589162 
-0.151481 0.287363 0.960108 82.837459 -0.342984 85.838422 5.861714 0.240290 -20.630424 -7.227233 4.331090 37.628652 2.013292 8.209943 -16.827990 0.000000 -0.000000 0.000000 -3.273959 1.465862 -24.229857 0.578918 -4.018935 43.627660 0.280424 -5.101524 -17.785336 0.000000 -0.000000 0.000000 -1.324758 -0.644400 25.914638 2.743227 -5.678957 -0.452357 2.061791 -2.423948 1.446677 -4.326662 3.539620 15.881251 3.651892 2.541672 9.627378 -15.271214 -16.288730 4.712149 -60.341843 -24.628071 5.898863 12.255352 -18.658525 -11.684131 10.207528 -6.892792 -23.225187 14.094570 12.424348 6.502886 67.687301 9.561612 11.104344 -15.289694 14.639639 -2.956275 -1.619269 3.650906 -8.376539 
-0.147652 0.286524 0.961282 83.536976 -0.271314 85.944750 5.787117 0.064804 -20.418431 -7.235512 4.020854 37.314053 2.040299 8.140118 -16.820699 0.000000 -0.000000 0.000000 -3.262966 1.368704 -23.755620 0.571582 -4.273333 43.318885 0.251629 -5.341966 -18.110317 0.000000 -0.000000 0.000000 -1.254355 -0.727188 25.626561 2.730759 -5.803641 -0.390008 2.054459 -2.490004 1.430082 -4.282814 3.325489 15.698686 3.733659 2.610856 9.724863 -15.494728 -16.422861 4.785185 -61.053284 -24.874653 6.432695 12.226192 -19.136524 -11.014297 10.266244 -6.999074 -22.900707 14.152054 12.355141 6.644638 67.996075 9.241276 11.160955 -15.070796 14.685108 -2.372091 -1.751759 3.846463 -7.870889 
-0.143967 0.285844 0.962344 84.173240 -0.136635 86.062200 5.817996 -0.011593 -20.255778 -7.241638 3.733455 37.102072 2.062637 7.880441 -16.855173 0.000000 -0.000000 0.000000 -3.238264 1.030992 -23.343937 0.604817 -4.606582 43.064658 0.186939 -5.346866 -18.384976 0.000000 -0.000000 0.000000 -1.107331 -0.725611 25.233126 2.705345 -5.868884 -0.256753 2.025694 -2.525913 1.370015 -4.223754 3.075070 15.715842 3.824317 2.589191 9.853117 -15.707906 -16.531514 4.879719 -61.932568 -24.979374 6.918690 12.154743 -19.310371 -10.161677 10.110056 -7.051139 -22.410462 14.125893 12.383457 6.770858 68.301309 9.140760 11.155589 -14.846854 14.923048 -1.674269 -1.722650 4.117362 -7.678023 
-0.140462 0.285106 0.963255 84.630253 -0.037213 86.110666 5.915277 -0.010917 -20.009700 -7.286828 3.590741 36.898552 1.986176 7.596429 -16.900066 0.000000 -0.000000 0.000000 -3.191994 0.725625 -22.956373 0.561555 -4.903326 42.900656 0.174587 -5.289430 -18.564725 0.000000 -0.000000 0.000000 -1.097476 -0.548427 24.925609 2.702916 -5.829225 -0.118937 2.043417 -2.518934 1.279218 -4.088249 2.853467 15.842209 3.915373 2.453269 9.956064 -15.873455 -16.609022 5.036270 -62.894472 -24.963069 7.444419 12.023491 -19.281370 -9.432004 9.773458 -7.002297 -22.282442 14.180981 12.438153 6.828100 68.433456 9.212906 11.163641 -14.705586 15.363536 -1.141537 -1.505152 4.254123 -7.708589 
-0.137075 0.284308 0.963725 85.108765 0.068579 86.117252 6.047578 0.024470 -19.812165 -7.369288 3.487843 36.852413 1.873992 7.351143 -17.005051 0.000000 -0.000000 0.000000 -3.134447 0.544877 -22.573134 0.490026 -5.221362 42.819295 0.130835 -5.320401 -18.721436 0.000000 -0.000000 0.000000 -1.153530 -0.381685 24.651240 2.737162 -5.782319 0.010146 2.072558 -2.473096 1.203846 -3.889158 2.670982 16.005328 3.985552 2.275693 10.049460 -15.992051 -16.586442 5.208656 -63.825919 -24.757994 7.958177 11.769736 -19.231657 -8.534588 9.442027 -6.903687 -22.071406 14.277779 12.509852 6.831602 68.435021 9.438025 11.177090 -14.643724 15.895649 -0.650450 -1.295328 4.408736 -7.802964 
